<svg width="30" height="30" viewBox="0 0 30 30" fill="none" xmlns="http://www.w3.org/2000/svg">
<path d="M13.4376 3.0625C14.3126 2.325 15.7251 2.325 16.5751 3.0625L18.5501 4.75C18.9251 5.0625 19.6376 5.325 20.1376 5.325H22.2626C23.5876 5.325 24.6751 6.4125 24.6751 7.7375V9.8625C24.6751 10.3625 24.9376 11.0625 25.2501 11.4375L26.9376 13.4125C27.6751 14.2875 27.6751 15.7 26.9376 16.55L25.2501 18.525C24.9376 18.9 24.6751 19.6 24.6751 20.1V22.225C24.6751 23.55 23.5876 24.6375 22.2626 24.6375H20.1376C19.6376 24.6375 18.9376 24.9 18.5626 25.2125L16.5876 26.9C15.7126 27.6375 14.3001 27.6375 13.4501 26.9L11.4751 25.2125C11.1001 24.9 10.3876 24.6375 9.9001 24.6375H7.7126C6.3876 24.6375 5.3001 23.55 5.3001 22.225V20.0875C5.3001 19.6 5.0501 18.8875 4.7376 18.525L3.0501 16.5375C2.3251 15.675 2.3251 14.275 3.0501 13.4125L4.7376 11.425C5.0501 11.05 5.3001 10.35 5.3001 9.8625V7.75C5.3001 6.425 6.3876 5.3375 7.7126 5.3375H9.8751C10.3751 5.3375 11.0751 5.075 11.4501 4.7625L13.4376 3.0625Z" stroke="#DF5532" stroke-width="1.5" stroke-linecap="round" stroke-linejoin="round"/>
<path d="M10.625 19.925L15 10.075L19.375 19.925" stroke="#F9AC10" stroke-width="1.5" stroke-linejoin="bevel"/>
<path d="M17.1875 16.6375H12.8125" stroke="#F8A700" stroke-width="1.5" stroke-linecap="round" stroke-linejoin="round"/>
</svg>
