<svg width="30" height="30" viewBox="0 0 30 30" fill="none" xmlns="http://www.w3.org/2000/svg">
<path d="M10.7002 5V21.25" stroke="#F8A700" stroke-width="1.83246" stroke-linecap="round" stroke-linejoin="round"/>
<path d="M19.6626 8.275V25" stroke="#F8A700" stroke-width="1.83246" stroke-linecap="round" stroke-linejoin="round"/>
<path d="M2.86279 9.725V21.8875C2.86279 24.2625 4.55029 25.2375 6.60029 24.0625L9.53779 22.3875C10.1753 22.025 11.2378 21.9875 11.9003 22.325L18.4628 25.6125C19.1253 25.9375 20.1878 25.9125 20.8253 25.55L26.2378 22.45C26.9253 22.05 27.5003 21.075 27.5003 20.275V8.1125C27.5003 5.7375 25.8128 4.7625 23.7628 5.9375L20.8253 7.6125C20.1878 7.975 19.1253 8.0125 18.4628 7.675L11.9003 4.4C11.2378 4.075 10.1753 4.1 9.53779 4.4625L4.12529 7.5625C3.42529 7.9625 2.86279 8.9375 2.86279 9.725Z" stroke="#DF5532" stroke-width="1.83246" stroke-linecap="round" stroke-linejoin="round"/>
</svg>
